<svg xmlns="http://www.w3.org/2000/svg" xmlns:xlink="http://www.w3.org/1999/xlink" width="500" zoomAndPan="magnify" viewBox="0 0 375 374.999991" height="500" preserveAspectRatio="xMidYMid meet" version="1.0"><defs><clipPath id="440912fde2"><path d="M 131.25 318.75 L 243.75 318.75 L 243.75 375 L 131.25 375 Z M 131.25 318.75 " clip-rule="nonzero"/></clipPath><clipPath id="6be8f6cc86"><path d="M 187.5 318.75 C 156.433594 318.75 131.25 343.933594 131.25 375 C 131.25 406.066406 156.433594 431.25 187.5 431.25 C 218.566406 431.25 243.75 406.066406 243.75 375 C 243.75 343.933594 218.566406 318.75 187.5 318.75 Z M 187.5 318.75 " clip-rule="nonzero"/></clipPath><clipPath id="9b7d746937"><path d="M 0 131.25 L 56.25 131.25 L 56.25 243.75 L 0 243.75 Z M 0 131.25 " clip-rule="nonzero"/></clipPath><clipPath id="6c89cf462e"><path d="M 0 131.25 C -31.066406 131.25 -56.25 156.433594 -56.25 187.5 C -56.25 218.566406 -31.066406 243.75 0 243.75 C 31.066406 243.75 56.25 218.566406 56.25 187.5 C 56.25 156.433594 31.066406 131.25 0 131.25 Z M 0 131.25 " clip-rule="nonzero"/></clipPath><clipPath id="9ad2d79393"><path d="M 131.25 0 L 243.75 0 L 243.75 56.25 L 131.25 56.25 Z M 131.25 0 " clip-rule="nonzero"/></clipPath><clipPath id="57b4a52f74"><path d="M 187.5 -56.25 C 156.433594 -56.25 131.25 -31.066406 131.25 0 C 131.25 31.066406 156.433594 56.25 187.5 56.25 C 218.566406 56.25 243.75 31.066406 243.75 0 C 243.75 -31.066406 218.566406 -56.25 187.5 -56.25 Z M 187.5 -56.25 " clip-rule="nonzero"/></clipPath><clipPath id="9e3376a0c1"><path d="M 318.75 131.25 L 375 131.25 L 375 243.75 L 318.75 243.75 Z M 318.75 131.25 " clip-rule="nonzero"/></clipPath><clipPath id="ed873ff101"><path d="M 375 131.25 C 343.933594 131.25 318.75 156.433594 318.75 187.5 C 318.75 218.566406 343.933594 243.75 375 243.75 C 406.066406 243.75 431.25 218.566406 431.25 187.5 C 431.25 156.433594 406.066406 131.25 375 131.25 Z M 375 131.25 " clip-rule="nonzero"/></clipPath></defs><g clip-path="url(#440912fde2)"><g clip-path="url(#6be8f6cc86)"><path fill="#ffffff" d="M 131.25 318.75 L 243.75 318.75 L 243.75 431.25 L 131.25 431.25 Z M 131.25 318.75 " fill-opacity="1" fill-rule="nonzero"/></g></g><g clip-path="url(#9b7d746937)"><g clip-path="url(#6c89cf462e)"><path fill="#ffffff" d="M -56.25 131.25 L 56.25 131.25 L 56.25 243.75 L -56.25 243.75 Z M -56.25 131.25 " fill-opacity="1" fill-rule="nonzero"/></g></g><g clip-path="url(#9ad2d79393)"><g clip-path="url(#57b4a52f74)"><path fill="#ffffff" d="M 131.25 -56.25 L 243.75 -56.25 L 243.75 56.25 L 131.25 56.25 Z M 131.25 -56.25 " fill-opacity="1" fill-rule="nonzero"/></g></g><g clip-path="url(#9e3376a0c1)"><g clip-path="url(#ed873ff101)"><path fill="#ffffff" d="M 318.75 131.25 L 431.25 131.25 L 431.25 243.75 L 318.75 243.75 Z M 318.75 131.25 " fill-opacity="1" fill-rule="nonzero"/></g></g></svg>